**ABCDEFGHIJKLMNOPQRSTUVWXYZabcdefghijklmnopqrstuvwxyz**************************
**PARASOLID !"#$%&'()*+,-./:;<=>?@[\]^_`{|}~0123456789**************************
**PART1;
MC=unknown;
MC_MODEL=unknown;
MC_ID=unknown;
OS=unknown;
OS_RELEASE=unknown;
FRU=Parasolid 37.1.212;
APPL=Onshape;
SITE=unknown;
USER=unknown;
FORMAT=text;
GUISE=transmit;
KEY=BTGapi::writeModels_.xmt;
FILE=BTGapi::writeModels_.xmt;
DATE=2026-05-19T03:57:42 (UTC);
**PART2;
SCH=SCH_3701212_37102;
USFLD_SIZE=0;
**PART3;
**END_OF_HEADER*****************************************************************
T51 : TRANSMIT FILE created by modeller version 370121223 SCH_3701212_37102_1300
6239 0 176 6 14 PART_XMT_BLOCK9 Part list9 n_entries0 0 1 d16 index_map_offset0
 0 1 d9 index_map82 0 20 schema_embedding_map82 0 16 mesh_offset_data206 0 7 ent
ries1005 1 T2 1 2 0 0 0 0 2 3 12 36 CCCI7 lattice222 0 CCCI4 mesh1006 0 I8 polyl
ine1008 0 CCCCCCCDI5 owner1040 0 CCCI16 boundary_lattice222 0 CCCI13 boundary_me
sh1006 0 I17 boundary_polyline1008 0 CCCA16 index_map_offset0 0 1 dA9 index_map8
2 0 A17 node_id_index_map82 0 A20 schema_embedding_map82 0 A5 child12 0 A14 lowe
st_node_id0 0 1 dA16 mesh_offset_data206 0 Z2 213 4 5 0 0 0 0 0 0 0 1e3 1e-8 0 6
 7 1 0 1 2 8 0 9 10 11 0 0 12 13 14 0 0 0 0 0 0 0 12 3 1616 15 16 0 0 0 0 0 0 0
 1e3 1e-8 0 17 18 1 0 1 2 19 0 20 21 22 0 0 23 24 25 0 0 0 0 0 0 0 81 255 1 15 1
592 27 3 30 0 0 0 29 70 11 CI9 list_type0 0 1 uI10 notransmit0 0 1 lCCCDCCDI12 f
inger_index0 0 1 dI12 finger_block1012 0 CZ16 0 4 T3 0 0 5 20 1 26 26 13 255 19
 137 0 3 0 28 0 0 34 0 50 255 20 132 0 28 35 0 0 +.3 .00382246542721984 .0772587
215427991 0 0 1 1 0 0 30 255 21 923 0 24 32 0 0 +.14246 .00382246542721987 -.120
201278457201 0 -1 0 29 255 22 911 0 25 33 0 .14746 -.14 -.120201278457201 19 9 C
CCCCCI5 frame230 0 CA5 owner12 0 Z23 48 0 3 34 0 31 0 V0 16 255 24 921 38 ?40 0
 36 21 0 0 3 18 255 25 909 39 37 0 41 22 ?3 81 1 39 1180 45 25 0 0 43 42 44 17 2
55 37 0 46 50 48 25 47 49 0 51 +18 41 536 55 52 25 53 33 ?3 81 1 55 767 45 41 0
 0 54 57 60 17 52 0 59 56 58 41 64 61 0 65 +18 53 512 63 62 41 68 67 ?3 29 33 53
8 0 41 67 22 .2726291548619765 .1263086799532176 .0772587215427991 29 67 514 0 5
3 66 33 .02262915486197625 .1263086799532176 .0747187215427991 29 66 113 0 70 69
 67 0 .15382246542722 .0772587215427991 18 70 92 75 72 73 71 66 ?3 29 69 114 0 7
1 74 66 0 .15382246542722 -.122741278457201 18 71 96 79 80 70 77 69 ?3 29 74 115
 0 77 78 69 0 -.14617753457278 -.122741278457201 18 77 100 76 83 71 85 74 ?3 29
 78 116 0 85 81 74 0 -.14617753457278 .0772587215427991 18 85 104 84 82 77 86 78
 ?3 29 81 44 0 68 90 78 .3 .15382246542722 .0772587215427991 18 68 42 88 87 53 8
9 81 ?3 29 90 39 0 89 91 81 .3 .15382246542722 -.122741278457201 18 89 37 95 93
 68 92 90 ?3 29 91 34 0 92 94 90 .3 -.14617753457278 -.122741278457201 18 92 32
 96 100 89 73 91 ?3 29 94 29 0 73 97 91 .3 -.14617753457278 .0772587215427991 18
 73 27 98 99 92 70 94 ?3 29 97 341 0 102 105 94 .29746 .15128246542722 -.1202012
78457201 18 102 285 104 101 86 103 97 ?3 29 105 342 0 109 106 97 .00254 .1512824
6542722 -.120201278457201 18 109 281 110 108 107 113 105 ?3 29 106 343 0 103 112
 105 .29746 -.14363753457278 -.120201278457201 18 103 283 111 115 102 114 106 ?3
 29 112 344 0 113 120 106 .00254 -.14363753457278 -.120201278457201 18 113 275 1
17 118 109 116 112 ?3 29 120 345 0 86 119 112 .29746 .15128246542722 .0747187215
427991 18 86 279 124 125 85 102 120 ?3 29 119 346 0 107 122 120 .00254 .15128246
542722 .0747187215427991 18 107 273 123 121 114 109 119 ?3 29 122 347 0 116 128
 119 .00254 -.14363753457278 .0747187215427991 18 116 277 130 126 113 129 122 ?3
 29 128 348 0 114 127 122 .29746 -.14363753457278 .0747187215427991 18 114 271 1
31 135 103 107 128 ?3 29 127 719 0 129 133 128 .02262915486197635 -.073691320046
7825 .0747187215427991 18 129 639 132 134 116 136 127 ?3 29 133 720 0 136 140 12
7 .2726291548619765 -.0736913200467825 .0747187215427991 18 136 642 138 137 129
 139 133 ?3 29 140 722 0 139 141 133 .2726291548619765 .1263086799532176 .074718
7215427991 18 139 645 145 142 136 143 140 ?3 29 141 723 0 143 144 140 .022629154
8619763 .1263086799532176 .0772587215427991 18 143 648 54 147 139 150 141 ?3 29
 144 725 0 150 149 141 .2726291548619765 -.0736913200467825 .0772587215427991 18
 150 643 146 58 143 148 144 ?3 29 149 726 0 148 154 144 .02262915486197635 -.073
6913200467825 .0772587215427991 18 148 640 151 155 150 153 149 ?3 29 154 1151 0
 153 152 149 .14246 .14 -.120201278457201 18 153 1067 42 158 148 157 154 ?3 29 1
52 1153 0 157 156 154 .14246 -.14 -.120201278457201 18 157 1050 160 40 153 159 1
52 ?3 29 156 1155 0 159 165 152 .14746 .14 -.120201278457201 18 159 1055 43 50 1
57 162 156 ?3 29 165 1158 0 163 161 156 .14746 -.14 .0736696068565365 18 163 106
5 164 169 170 167 165 ?3 29 161 1159 0 167 168 165 .14746 .14 .0736696068565365
 18 167 1068 166 173 163 0 161 ?3 29 168 1162 0 162 175 161 .14246 -.14 .0736696
068565365 18 162 1061 171 174 159 170 168 ?3 29 175 1163 0 170 0 168 .14246 .14
 .0736696068565365 18 170 1063 172 176 162 163 175 ?3 81 1 172 1064 45 170 0 0 1
71 164 180 17 176 0 178 177 179 170 173 181 0 185 -15 255 178 1109 0 179 183 0 1
7 177 0 178 169 176 162 182 184 0 0 +17 179 0 178 176 169 167 48 186 0 0 -17 173
 0 190 187 185 167 176 181 0 188 +16 181 1022 189 ?173 192 184 195 0 0 3 17 185
 0 190 173 158 170 194 191 0 182 -15 190 1113 0 158 193 0 17 158 0 190 185 187 1
53 199 196 0 194 -17 194 0 200 40 182 153 185 191 0 198 +16 191 1034 197 ?194 20
3 186 202 0 0 3 17 182 0 200 194 201 170 177 184 0 0 -15 200 1121 0 194 205 0 17
 201 0 200 182 40 162 204 203 0 177 -16 184 1016 210 ?177 181 203 207 0 0 3 81 1
 210 1018 45 184 0 0 208 206 209 16 203 1010 214 ?204 184 191 215 0 0 3 30 207 1
146 0 184 215 212 0 +.14246 -277555756156289e-31 .0736696068565365 0 -1 0 30 215
 1147 0 203 202 207 0 +.14246 -.14 -.0513303931434635 0 2220446049250315e-31 -1
 30 212 1145 0 213 207 211 0 +.14746 .14 -.0513303931434635 0 2220446049250315e-
31 -1 16 213 1025 218 ?187 49 0 212 0 0 3 30 211 1143 0 49 212 220 0 +.14746 -.1
4 -.0513303931434635 0 2220446049250315e-31 -1 16 49 1043 216 ?37 186 213 211 0
 0 3 30 220 1142 0 186 211 219 0 +.14746 -277555756156289e-31 .0736696068565365
 0 -1 0 16 186 1040 217 ?48 191 49 220 0 0 3 30 219 1141 0 192 220 195 0 +.14246
 -.14 .0736696068565365 1 0 0 16 192 1019 206 ?169 221 181 219 0 0 3 30 195 1140
 0 181 219 225 0 +.14246 .14 .0736696068565365 1 0 0 30 225 714 0 221 195 223 0
 +.02262915486197635 .0263086799532175 .0772587215427991 -1734723475976805e-31 1
 0 16 221 574 222 ?224 226 192 225 0 0 3 30 223 713 0 226 225 230 0 +.1476291548
619764 -.0736913200467825 .0772587215427991 1 0 0 16 226 629 57 ?228 61 221 223
 0 0 3 30 230 712 0 61 223 227 0 +.2726291548619765 .0263086799532175 .077258721
5427991 0 1 0 16 61 634 229 ?52 231 226 230 0 0 3 30 227 711 0 231 230 235 0 +.1
476291548619762 .1263086799532176 .0772587215427991 1 0 0 16 231 594 232 ?233 23
4 61 227 0 0 3 30 235 710 0 234 227 237 0 +.0226291548619763 .1263086799532176 .
0672587215427991 0 0 1 16 234 617 240 ?147 239 231 235 0 0 3 30 237 709 0 239 23
5 236 0 +.2726291548619765 .1263086799532176 .0672587215427991 0 0 1 16 239 614
 238 ?65 244 234 237 0 0 3 30 236 708 0 244 237 241 0 +.2726291548619765 -.07369
13200467825 .0672587215427991 0 0 1 16 244 608 245 ?58 243 239 236 0 0 3 30 241
 707 0 243 236 242 0 +.02262915486197635 -.0736913200467825 .0672587215427991 0
 0 1 16 243 599 248 ?155 247 244 241 0 0 3 30 242 340 0 246 241 250 0 +.00254 .0
0382246542721984 .0747187215427991 0 1 0 16 246 263 249 ?255 252 253 242 0 0 3 3
0 250 339 0 251 242 254 0 +.3 -.14363753457278 .0747187215427991 -1 0 0 16 251 2
49 259 ?126 260 257 250 0 0 3 30 254 338 0 258 250 256 0 +.29746 .00382246542721
984 .0747187215427991 0 1 0 16 258 243 263 ?265 261 264 254 0 0 3 30 256 337 0 2
62 254 266 0 +.3 .15128246542722 .0747187215427991 -1 0 0 16 262 245 270 ?121 26
8 267 256 0 0 3 30 266 336 0 252 256 269 0 +.00254 -.14363753457278 -.0227412784
5720085 0 0 -1 16 252 247 271 ?118 275 246 266 0 0 3 30 269 335 0 257 266 273 0
 +.3 -.14363753457278 -.120201278457201 -1 0 0 16 257 253 272 ?274 251 268 269 0
 0 3 30 273 334 0 261 269 276 0 +.29746 -.14363753457278 -.02274127845720085 0 0
 -1 16 261 259 280 ?115 277 258 273 0 0 3 30 276 333 0 275 273 278 0 +.00254 .00
382246542721987 -.120201278457201 0 1 0 16 275 251 279 ?282 264 252 276 0 0 3 30
 278 332 0 268 276 285 0 +.3 .15128246542722 -.120201278457201 -1 0 0 16 268 257
 284 ?108 257 262 278 0 0 3 30 285 331 0 277 278 281 0 +.29746 .0038224654272198
7 -.120201278457201 0 1 0 16 277 261 283 ?101 267 261 285 0 0 3 30 281 330 0 264
 285 289 0 +.00254 .15128246542722 -.02274127845720085 0 0 -1 16 264 265 286 ?29
0 258 275 281 0 0 3 30 289 329 0 267 281 288 0 +.29746 .15128246542722 -.0227412
7845720085 0 0 -1 16 267 255 287 ?293 262 277 289 0 0 3 31 255 288 328 0 247 289
 292 0 +.29746 .002688763427679895 .0216947916827658 1 0 0 0 0 -1 .05254 16 247
 267 291 ?295 253 243 288 0 0 3 31 292 327 0 253 288 294 0 +.29 .002688763427679
895 .0216947916827658 1 0 0 0 0 -1 .05254 16 253 269 300 ?297 246 247 292 0 0 3
 31 294 235 0 260 292 298 0 +.29 .002688763427679895 .0216947916827658 1 0 0 0 0
 -1 .05 16 260 242 296 ?299 304 251 294 0 0 3 31 298 234 0 304 294 305 0 +.3 .00
2688763427679895 .0216947916827658 1 0 0 0 0 -1 .05 16 304 211 302 ?303 301 260
 298 0 0 3 30 305 9 0 308 298 310 0 +.3 .00382246542721984 .0772587215427991 0 1
 0 16 308 7 306 ?309 307 311 305 0 0 3 30 310 14 0 307 305 315 0 +.3 -.146177534
57278 -.02274127845720085 0 0 -1 16 307 12 313 ?100 312 308 310 0 0 3 30 315 19
 0 312 310 314 0 +.3 .00382246542721987 -.122741278457201 0 1 0 16 312 17 316 ?9
3 320 307 315 0 0 3 30 314 24 0 320 315 318 0 +.3 .15382246542722 -.022741278457
20085 0 0 -1 16 320 22 317 ?319 321 312 314 0 0 3 30 318 112 0 301 314 325 0 +0
 .00382246542721984 .0772587215427991 0 1 0 16 301 88 322 ?323 324 304 318 0 0 3
 30 325 111 0 324 318 327 0 +0 -.14617753457278 -.02274127845720085 0 0 -1 16 32
4 84 330 ?83 329 301 325 0 0 3 30 327 110 0 329 325 326 0 +0 .00382246542721987
 -.122741278457201 0 1 0 16 329 80 328 ?334 311 324 327 0 0 3 30 326 109 0 311 3
27 331 0 +0 .15382246542722 -.02274127845720085 0 0 -1 16 311 76 335 ?333 308 32
9 326 0 0 3 30 331 133 0 321 326 332 0 +.3 .15382246542722 .0772587215427991 -1
 0 0 16 321 117 338 ?72 337 320 331 0 0 3 30 332 134 0 337 331 336 0 +.3 .153822
46542722 -.122741278457201 -1 0 0 16 337 118 340 ?80 339 321 332 0 0 3 30 336 13
5 0 339 332 345 0 +.3 -.14617753457278 -.122741278457201 -1 0 0 16 339 119 342 ?
343 341 337 336 0 0 3 30 345 136 0 341 336 344 0 +.3 -.14617753457278 .077258721
5427991 -1 0 0 16 341 120 349 ?82 350 339 345 0 0 3 30 344 518 0 350 345 347 0 +
.3 .1263086799532176 .0747187215427991 1 0 0 16 350 516 348 ?142 346 341 344 0 0
 3 30 347 522 0 346 344 353 0 +.2726291548619765 .00382246542721984 .07471872154
27991 0 1 0 16 346 520 355 ?351 354 350 347 0 0 3 30 353 526 0 354 347 352 0 +.3
 -.0736913200467825 .0747187215427991 1 0 0 16 354 524 356 ?360 358 346 353 0 0
 3 30 352 529 0 358 353 357 0 +.0226291548619763 .00382246542721979 .07471872154
27991 -1734723475976805e-31 1 0 16 358 527 359 ?361 365 354 352 0 0 3 30 357 912
 0 365 352 363 0 +.14746 .00382246542721987 -.120201278457201 0 -1 0 16 365 910
 362 ?364 196 358 357 0 0 3 30 363 916 0 196 357 32 0 +.3 .14 -.120201278457201
 1 0 0 16 196 914 366 ?199 36 365 363 0 0 3 30 32 920 0 36 363 21 0 +.3 -.14 -.1
20201278457201 1 0 0 16 36 918 370 ?51 24 196 32 0 0 3 81 1 370 1190 45 36 0 0 3
66 367 368 17 51 0 369 47 204 25 372 36 0 364 +15 369 1105 0 204 375 0 17 47 0 3
69 174 51 163 37 49 0 48 -17 204 0 369 51 174 157 201 203 0 372 +17 372 0 374 19
8 364 157 51 36 0 0 -17 364 0 374 372 199 25 50 365 0 0 +15 374 922 0 198 371 37
3 17 199 0 374 364 198 159 158 196 0 0 +17 50 0 46 188 37 159 364 365 0 187 -15
 46 1125 0 50 379 0 17 188 0 46 48 50 167 187 213 0 179 -17 187 0 190 158 173 15
9 188 213 0 199 +17 48 0 46 37 188 163 179 186 0 0 +14 255 379 1122 376 ?205 183
 46 19 380 -0 0 205 183 31 81 1 376 1613 378 379 377 0 383 382 381 14 205 1118 3
82 ?193 379 200 19 385 +0 0 193 379 31 14 183 1106 383 ?379 384 178 19 390 +0 0
 379 384 31 50 380 1132 0 379 385 390 0 +.14746 .00382246542721987 -.05080583580
03322 -1 0 0 0 -1 0 13 31 49 0 0 0 0 0 0 23 28 14 28 128 387 ?388 0 386 19 20 +0
 0 388 0 31 81 1 387 1593 378 28 389 0 0 394 395 14 388 290 394 ?392 28 393 19 3
91 -0 0 392 28 31 15 386 127 0 398 28 400 17 398 0 386 99 72 85 323 301 0 0 -15
 400 534 0 396 28 0 17 396 0 400 224 64 148 228 226 0 0 -17 224 0 400 233 396 14
3 399 221 0 0 +17 64 0 400 396 233 150 52 61 0 0 -17 228 0 397 401 155 150 396 2
26 0 64 +15 397 666 0 155 405 0 17 401 0 397 134 228 136 58 244 0 360 -17 155 0
 397 228 134 148 403 243 0 399 +17 134 0 397 155 401 129 360 354 0 403 -17 403 0
 402 361 399 129 155 243 0 404 -17 399 0 402 403 147 148 224 221 0 396 -15 402 6
62 0 361 406 0 17 147 0 402 399 361 143 62 234 0 410 +17 361 0 402 147 403 53 40
4 358 0 408 +17 62 0 407 142 410 53 147 234 0 361 -17 410 0 407 62 65 143 233 23
1 0 224 -15 407 674 0 142 384 0 17 65 0 407 410 142 41 56 239 0 233 +17 233 0 40
0 64 224 41 410 231 0 0 +17 142 0 407 65 62 139 408 350 0 56 +17 56 0 59 137 52
 139 65 239 0 351 -15 59 670 0 58 409 0 17 137 0 59 58 56 136 351 346 0 401 -17
 351 0 411 408 360 139 137 346 0 0 +15 411 528 0 404 388 0 17 408 0 411 404 351
 53 142 350 0 0 -17 360 0 411 351 404 136 134 354 0 0 +17 404 0 411 360 408 129
 361 358 0 0 -17 58 0 59 52 137 150 401 244 0 228 +14 409 683 415 ?384 405 59 19
 412 -0 0 384 405 31 81 1 415 1610 378 409 413 0 414 417 420 14 384 687 417 ?183
 409 407 19 419 +0 0 183 409 31 14 405 679 414 ?409 406 397 19 416 -0 0 409 406
 31 50 412 703 0 409 419 416 0 +.2726291548619765 .0263086799532175 .06725872154
27991 1 0 0 0 0 -1 50 419 704 0 384 418 412 0 +.1476291548619762 .12630867995321
76 .0672587215427991 0 -1 0 0 0 -1 50 416 702 0 405 412 424 0 +.1476291548619764
 -.0736913200467825 .0672587215427991 0 -1 0 0 0 -1 50 424 701 0 406 416 421 0 +
.02262915486197635 .0263086799532175 .0672587215427991 1 1734723475976805e-31 0
 -1734723475976805e-31 1 0 14 406 675 425 ?405 423 402 19 424 +0 0 405 423 31 50
 421 326 0 423 424 391 0 +.29 .00382246542721987 -.02274127845720085 1 0 0 0 1 0
 14 423 313 422 ?406 428 427 19 421 -0 0 406 428 31 50 391 325 0 388 421 426 0 +
.3 .00382246542721984 .0747187215427991 0 0 1 1 0 0 50 426 324 0 430 391 429 0 +
.3 -.14363753457278 -.02274127845720085 0 1 0 0 0 1 14 430 293 435 ?371 432 433
 19 426 +0 0 371 432 31 50 429 323 0 371 426 431 0 +.3 .00382246542721987 -.1202
01278457201 0 0 1 1 0 0 14 371 296 434 ?439 430 374 19 429 +0 0 439 430 31 50 43
1 322 0 439 429 440 0 +.3 .15128246542722 -.02274127845720085 0 1 0 0 0 1 14 439
 299 437 ?438 371 436 19 431 -0 0 438 371 31 50 440 321 0 438 431 443 0 +.29746
 .00382246542721987 -.02274127845720085 1 0 0 0 1 0 14 438 302 445 ?441 439 444
 19 440 -0 0 441 439 31 50 443 320 0 441 440 442 0 +.00254 .00382246542721987 -.
02274127845720085 1 0 0 0 1 0 14 441 306 446 ?428 438 450 19 443 +0 0 428 438 31
 51 255 442 319 0 428 443 448 0 +.29 .002688763427679895 .0216947916827658 1 0 0
 .05254 0 0 -1 14 428 309 447 ?423 441 449 19 442 +0 0 423 441 31 51 448 231 0 4
32 442 451 0 +.29 .002688763427679895 .0216947916827658 1 0 0 .05 0 0 -1 14 432
 216 455 ?430 453 452 19 448 -0 0 430 453 31 50 451 3 0 454 448 456 0 +.3 .00382
246542721987 -.02274127845720085 1 0 0 0 1 0 14 454 1 460 ?453 457 458 19 451 +0
 0 453 457 31 50 456 108 0 453 451 459 0 +0 .00382246542721987 -.022741278457200
85 1 0 0 0 1 0 14 453 68 462 ?432 454 465 19 456 -0 0 432 454 31 50 459 129 0 45
7 456 464 0 +.3 .15382246542722 -.02274127845720085 0 1 0 0 0 1 14 457 122 461 ?
454 463 469 19 459 +0 0 454 463 31 50 464 130 0 463 459 35 0 +.3 .00382246542721
987 -.122741278457201 0 0 1 1 0 0 14 463 124 466 ?457 392 470 19 464 -0 0 457 39
2 31 50 35 131 0 392 464 20 0 +.3 -.14617753457278 -.02274127845720085 0 1 0 0 0
 1 14 392 126 468 ?463 388 467 19 35 -0 0 463 388 31 81 1 468 1595 378 392 473 0
 394 466 472 15 467 125 0 83 392 0 17 83 0 467 471 82 77 475 324 0 343 +17 471 0
 467 474 83 92 343 339 0 480 -17 82 0 467 83 474 85 99 341 0 475 +17 475 0 465 3
23 477 85 83 324 0 398 -17 343 0 470 334 480 77 471 339 0 477 +15 470 123 0 334
 463 0 17 334 0 470 478 343 71 477 329 0 333 +17 480 0 470 343 478 92 93 312 0 0
 -17 477 0 465 475 333 77 334 329 0 0 -15 465 75 0 323 453 0 17 333 0 465 477 32
3 71 476 311 0 0 +17 323 0 465 333 475 70 398 301 0 476 +17 476 0 469 87 80 70 3
33 311 0 0 -15 469 121 0 476 457 0 17 87 0 469 319 476 68 72 321 0 309 -17 80 0
 469 476 319 71 478 337 0 334 +17 319 0 469 80 87 89 479 320 0 0 +17 478 0 470 4
80 334 89 80 337 0 319 -17 479 0 484 485 93 68 319 320 0 0 -15 484 6 0 485 454 0
 17 485 0 484 100 479 73 309 308 0 0 -17 93 0 484 479 100 89 480 312 0 478 +17 1
00 0 484 93 485 92 474 307 0 471 +17 474 0 467 82 471 73 100 307 0 485 -17 309 0
 386 72 99 68 485 308 0 479 +17 72 0 386 398 309 70 87 321 0 323 +17 99 0 386 30
9 398 73 82 341 0 474 -80 7 CCCCCDI12 legal_owners0 17 1 lCZ1 378 0 482 8001 0 0
 0 0 3 5 0 0 0 FFFFTFTFFFFFFFFFF2 81 1 473 176 45 392 0 468 483 481 488 81 1 394
 1594 378 388 208 0 387 468 490 81 1 466 1596 378 463 486 0 468 461 489 83 255 3
 472 .654901960784314 .823529411764706 .576470588235294 81 1 486 1589 45 463 0 4
66 487 0 491 81 1 461 1597 378 457 481 0 466 460 495 83 3 489 .654901960784314 .
823529411764706 .576470588235294 81 1 481 177 45 457 0 461 473 302 493 81 1 460
 1598 378 454 492 0 461 462 494 83 3 495 .654901960784314 .823529411764706 .5764
70588235294 81 1 492 240 45 454 0 460 496 130 500 81 1 462 1599 378 453 483 0 46
0 455 498 83 3 494 .654901960784314 .823529411764706 .576470588235294 81 1 483 1
73 45 453 0 462 317 473 497 81 1 455 1600 378 432 496 0 462 435 499 83 3 498 .65
4901960784314 .823529411764706 .576470588235294 81 1 496 238 45 432 0 455 302 49
2 501 81 1 435 1601 378 430 505 0 455 434 502 83 3 499 .654901960784314 .8235294
11764706 .576470588235294 81 1 505 374 45 430 0 435 503 504 507 81 1 434 1602 37
8 371 367 0 435 437 510 83 3 502 .654901960784314 .823529411764706 .576470588235
294 81 1 367 1192 45 371 0 434 370 218 509 81 1 437 1603 378 439 504 0 434 445 5
06 83 3 510 .654901960784314 .823529411764706 .576470588235294 81 1 504 375 45 4
39 0 437 505 508 514 81 1 445 1604 378 438 511 0 437 446 515 83 3 506 .654901960
784314 .823529411764706 .576470588235294 81 1 511 378 45 438 0 445 513 296 512 8
1 1 446 1605 378 441 503 0 445 447 518 83 3 515 .654901960784314 .82352941176470
6 .576470588235294 81 1 503 372 45 441 0 446 291 505 517 81 1 447 1606 378 428 5
08 0 446 422 516 83 3 518 .654901960784314 .823529411764706 .576470588235294 81
 1 508 376 45 428 0 447 504 513 520 81 1 422 1607 378 423 513 0 447 425 519 83 3
 516 .654901960784314 .823529411764706 .576470588235294 81 1 513 377 45 423 0 42
2 508 511 525 81 1 425 1608 378 406 522 0 422 414 523 83 3 519 .654901960784314
 .823529411764706 .576470588235294 81 1 522 782 45 406 0 425 521 413 524 81 1 41
4 1609 378 405 529 0 425 415 530 83 3 523 .654901960784314 .823529411764706 .576
470588235294 81 1 529 780 45 405 0 414 238 521 527 83 3 530 .654901960784314 .82
3529411764706 .576470588235294 80 1 45 528 526 9000 0 0 0 0 3 6 0 0 0 FFTFTFTTFF
FFFFFFF1 81 1 238 779 45 239 0 0 240 529 533 81 1 521 781 45 384 0 417 529 522 5
35 82 255 3 527 21 0 2 81 1 417 1611 378 384 521 0 415 383 531 82 3 535 21 1 2 8
1 1 383 1612 378 183 534 0 417 376 532 83 3 531 .654901960784314 .82352941176470
6 .576470588235294 81 1 534 1108 45 183 0 383 166 536 540 83 3 532 .654901960784
314 .823529411764706 .576470588235294 81 1 166 1069 45 167 0 0 164 534 538 81 1
 536 1174 45 3 0 537 534 43 539 82 3 540 26 0 2 81 1 537 1590 541 3 536 30 0 0 5
45 81 1 43 1179 45 159 0 0 536 39 543 82 3 539 6 0 3 82 3 543 27 4 0 80 1 541 54
2 544 8038 0 0 0 0 0 0 0 0 0 TTTTTTTTTTTTTFTFT10 81 1 30 1591 542 3 537 15 0 0 5
46 98 255 6 545 80 97 114 116 32 49 80 1 542 550 547 8017 0 0 0 0 0 0 0 0 0 TTTT
TTTTTTTTTFTFT3 84 255 6 546 Part 179 255 13 547 SDL/TYSA_NAME79 14 544 SDL/TYSA_
UNAME81 1 164 1066 45 163 0 0 172 166 548 82 3 538 26 0 0 82 3 548 26 2 0 81 1 2
40 778 45 234 0 0 245 238 549 82 3 533 21 11 1 81 1 245 777 45 244 0 0 248 240 5
52 82 3 549 21 10 1 81 1 248 776 45 243 0 0 355 245 555 82 3 552 21 9 1 81 1 355
 775 45 346 0 0 359 248 554 82 3 555 21 8 1 81 1 359 774 45 358 0 0 348 355 551
 82 3 554 21 7 1 81 1 348 773 45 350 0 0 356 359 553 82 3 551 21 6 1 81 1 356 77
2 45 354 0 0 229 348 559 82 3 553 21 5 1 81 1 229 771 45 61 0 0 222 356 556 82 3
 559 21 4 1 81 1 222 770 45 221 0 0 232 229 560 82 3 556 21 3 1 81 1 232 769 45
 231 0 0 57 222 558 82 3 560 21 2 1 81 1 57 768 45 226 0 0 55 232 557 82 3 558 2
1 1 1 82 3 557 21 0 1 79 9 526 BTI/DetId81 1 413 783 45 409 0 415 522 389 563 82
 3 524 21 2 2 81 1 389 784 45 28 0 387 413 208 562 82 3 563 21 3 2 81 1 208 785
 45 388 0 394 389 210 561 82 3 562 21 4 2 82 3 561 21 5 2 82 3 525 11 6 2 82 3 5
20 11 5 2 81 1 291 370 45 247 0 0 287 503 565 82 3 517 11 1 2 81 1 287 369 45 26
7 0 0 286 291 564 82 3 565 11 12 1 81 1 286 368 45 264 0 0 280 287 570 82 3 564
 11 11 1 81 1 280 367 45 261 0 0 271 286 567 82 3 570 11 10 1 81 1 271 366 45 25
2 0 0 283 280 568 82 3 567 11 9 1 81 1 283 365 45 277 0 0 279 271 566 82 3 568 1
1 8 1 81 1 279 364 45 275 0 0 263 283 569 82 3 566 11 7 1 81 1 263 363 45 258 0
 0 249 279 574 82 3 569 11 6 1 81 1 249 362 45 246 0 0 284 263 575 82 3 574 11 5
 1 81 1 284 361 45 268 0 0 272 249 572 82 3 575 11 4 1 81 1 272 360 45 257 0 0 2
70 284 573 82 3 572 11 3 1 81 1 270 359 45 262 0 0 259 272 571 82 3 573 11 2 1 8
1 1 259 358 45 251 0 0 104 270 578 82 3 571 11 1 1 81 1 104 357 45 102 0 0 110 2
59 580 82 3 578 11 0 1 81 1 110 356 45 109 0 0 111 104 576 82 3 580 11 7 0 81 1
 111 355 45 103 0 0 117 110 579 82 3 576 11 6 0 81 1 117 354 45 113 0 0 124 111
 577 82 3 579 11 5 0 81 1 124 353 45 86 0 0 123 117 581 82 3 577 11 4 0 81 1 123
 352 45 107 0 0 131 124 585 82 3 581 11 3 0 81 1 131 351 45 114 0 0 130 123 583
 82 3 585 11 2 0 81 1 130 350 45 116 0 0 492 131 582 82 3 583 11 1 0 82 3 582 11
 0 0 81 1 296 379 45 260 0 0 511 300 584 82 3 512 11 7 2 81 1 300 380 45 253 0 0
 296 132 586 82 3 584 11 13 1 81 1 132 760 45 129 0 0 300 138 590 82 3 586 11 14
 1 81 1 138 761 45 136 0 0 132 63 588 82 3 590 21 0 0 81 1 63 762 45 53 0 0 138
 145 587 82 3 588 21 1 0 81 1 145 763 45 139 0 0 63 151 589 82 3 587 21 2 0 81 1
 151 764 45 148 0 0 145 146 591 82 3 589 21 3 0 81 1 146 765 45 150 0 0 151 54 5
95 82 3 591 21 4 0 81 1 54 766 45 143 0 0 146 55 592 82 3 595 21 5 0 82 3 592 21
 6 0 82 3 514 11 4 2 81 1 218 1193 45 213 0 0 367 197 593 82 3 509 27 1 2 81 1 1
97 1195 45 191 0 0 218 216 594 82 3 593 27 8 1 81 1 216 1197 45 49 0 0 197 214 5
97 82 3 594 27 10 1 81 1 214 1199 45 203 0 0 216 377 600 82 3 597 27 12 1 81 1 3
77 1201 45 379 0 376 214 599 596 82 3 600 27 14 1 81 1 599 1203 45 205 0 382 377
 598 604 82 3 596 27 2 2 81 1 382 1614 378 205 599 0 376 601 605 81 1 598 1205 4
5 193 0 601 599 487 603 82 3 604 27 4 2 14 193 1110 601 ?375 205 190 19 418 -0 0
 375 205 31 81 1 601 1615 378 193 598 0 382 602 608 81 1 487 1207 45 375 0 602 5
98 486 607 82 3 603 27 6 2 14 375 1102 602 ?0 193 369 19 606 +0 0 0 193 31 81 1
 602 1616 378 375 487 0 601 0 610 82 3 607 27 8 2 83 3 610 .654901960784314 .823
529411764706 .576470588235294 50 606 1130 0 375 390 418 0 +.14246 -.14 -.0513303
931434635 0 -1 -2220446049250315e-31 0 2220446049250315e-31 -1 50 390 1131 0 183
 380 606 0 +.14246 -277555756156289e-31 .0736696068565365 0 0 1 1 0 0 50 418 112
8 0 193 606 419 0 +.14246 .14 -.0513303931434635 0 -1 -2220446049250315e-31 0 22
20446049250315e-31 -1 83 3 608 .654901960784314 .823529411764706 .57647058823529
4 83 3 605 .654901960784314 .823529411764706 .576470588235294 82 3 507 11 3 2 81
 1 302 236 45 304 0 0 481 496 609 82 3 501 10 0 2 82 3 609 10 0 1 81 1 317 171 4
5 320 0 0 335 483 615 82 3 497 6 1 2 81 1 335 170 45 311 0 0 313 317 612 82 3 61
5 6 11 1 81 1 313 169 45 307 0 0 330 335 613 82 3 612 6 10 1 81 1 330 168 45 324
 0 0 316 313 611 82 3 613 6 9 1 81 1 316 167 45 312 0 0 328 330 614 82 3 611 6 8
 1 81 1 328 166 45 329 0 0 306 316 619 82 3 614 6 7 1 81 1 306 165 45 308 0 0 32
2 328 620 82 3 619 6 6 1 81 1 322 164 45 301 0 0 340 306 617 82 3 620 6 5 1 81 1
 340 163 45 337 0 0 342 322 618 82 3 617 6 4 1 81 1 342 162 45 339 0 0 338 340 6
16 82 3 618 6 3 1 81 1 338 161 45 321 0 0 349 342 623 82 3 616 6 2 1 81 1 349 16
0 45 341 0 0 95 338 625 82 3 623 6 1 1 81 1 95 159 45 89 0 0 79 349 621 82 3 625
 6 0 1 81 1 79 158 45 71 0 0 96 95 624 82 3 621 6 7 0 81 1 96 157 45 92 0 0 76 7
9 622 82 3 624 6 6 0 81 1 76 156 45 77 0 0 88 96 626 82 3 622 6 5 0 81 1 88 155
 45 68 0 0 75 76 630 82 3 626 6 4 0 81 1 75 154 45 70 0 0 98 88 628 82 3 630 6 3
 0 81 1 98 153 45 73 0 0 84 75 627 82 3 628 6 2 0 81 1 84 152 45 85 0 0 0 98 629
 82 3 627 6 1 0 82 3 629 6 0 0 82 3 500 10 2 2 82 3 493 6 5 2 82 3 491 31 0 2 83
 3 490 .654901960784314 .823529411764706 .576470588235294 82 3 488 6 4 2 79 15 4
82 SDL/TYSA_COLOUR15 458 200 0 631 454 484 17 631 0 458 631 631 0 303 304 0 0 -1
7 303 0 635 303 303 0 631 304 0 0 +15 635 220 0 303 432 0 15 452 219 0 633 432 6
35 17 633 0 452 633 633 0 299 260 0 0 -17 299 0 427 299 299 0 633 260 0 0 +15 42
7 315 0 299 423 632 15 632 316 0 634 423 0 17 634 0 632 634 634 0 297 253 0 0 -1
7 297 0 449 297 297 0 634 253 0 0 +15 449 311 0 297 428 636 15 636 312 0 640 428
 0 17 640 0 636 640 640 0 295 247 0 0 -17 295 0 444 295 295 0 640 247 0 0 +15 44
4 304 0 295 438 637 15 637 305 0 265 438 0 17 265 0 637 293 638 86 639 258 0 642
 +17 293 0 637 645 265 102 642 267 0 0 +17 638 0 637 265 645 114 115 261 0 639 -
17 639 0 393 126 125 114 265 258 0 0 -17 642 0 436 121 644 86 293 267 0 0 -15 43
6 301 0 290 439 0 17 121 0 436 290 642 107 125 262 0 255 +17 644 0 436 642 290 1
02 108 268 0 293 -17 290 0 436 644 121 109 641 264 0 0 +17 108 0 373 643 101 109
 644 268 0 282 +15 373 298 0 643 371 0 17 643 0 373 649 108 113 282 275 0 0 -17
 101 0 373 108 649 102 645 277 0 644 +17 282 0 450 641 118 109 643 275 0 290 +15
 450 308 0 646 441 0 17 641 0 450 646 282 107 290 264 0 0 -17 118 0 450 282 646
 113 650 252 0 274 +17 646 0 450 118 641 116 255 246 0 0 -17 650 0 433 135 274 1
16 118 252 0 646 -17 274 0 433 650 115 113 649 257 0 643 +15 433 295 0 650 430 0
 17 115 0 433 274 135 103 638 261 0 649 +17 649 0 373 101 643 103 274 257 0 645
 -17 645 0 637 638 293 103 101 277 0 0 -17 135 0 433 115 650 114 126 251 0 638 -
17 126 0 393 255 639 116 135 251 0 650 +15 393 292 0 255 388 411 17 255 0 393 12
5 126 107 646 246 0 641 +17 125 0 393 639 255 86 121 262 0 265 -83 3 420 .654901
960784314 .823529411764706 .576470588235294 83 3 395 .654901960784314 .823529411
764706 .576470588235294 50 385 1133 0 205 0 380 0 +.14246 .00382246542721987 -.0
508058358003322 -1 0 0 0 -1 0 83 3 381 .654901960784314 .823529411764706 .576470
588235294 17 198 0 374 199 372 153 40 24 0 0 -17 40 0 200 201 194 157 198 24 0 2
04 +17 174 0 369 204 47 162 169 192 0 201 -17 169 0 178 179 177 163 174 192 0 47
 +81 1 366 1189 45 196 0 0 38 370 648 82 3 368 27 7 1 81 1 38 1188 45 24 0 0 362
 366 647 82 3 648 27 6 1 81 1 362 1187 45 365 0 0 160 38 653 82 3 647 27 5 1 81
 1 160 1182 45 157 0 0 42 362 652 82 3 653 27 4 1 81 1 42 1181 45 153 0 0 39 160
 651 82 3 652 27 7 0 82 3 651 27 6 0 81 1 206 1021 45 192 0 0 210 189 655 81 1 1
89 1024 45 181 0 0 206 217 654 82 3 655 26 1 1 81 1 217 1042 45 186 0 0 189 171
 660 82 3 654 26 0 1 81 1 171 1062 45 162 0 0 217 172 657 82 3 660 26 4 1 82 3 6
57 26 3 0 30 202 1149 0 191 0 215 0 +.14246 .14 -.0513303931434635 0 22204460492
50315e-31 -1 82 3 209 26 5 1 82 3 180 26 1 0 82 3 60 21 7 0 82 3 44 27 5 0 19 34
 138 0 3 0 23 19 0 S0 74 4 CI16 index_map_offset0 0 1 dCCZ20 26 5 0 0 486 537 30
 15 602 0 0 0 0 0 0 0 0 0 0 0 0 0 0 0 80 1 27 378 658 8040 0 0 0 0 3 5 0 0 0 TTT
FFFFFFFFFFFFFF2 83 3 29 .654901960784314 .823529411764706 .576470588235294 79 17
 658 SDL/TYSA_COLOUR_281 1 4 207 27 2 656 0 0 0 659 70 5 0 4 T2 0 0 5 20 1 664 6
64 13 8 49 0 2 0 665 0 0 662 0 50 9 132 0 665 663 0 0 +.0580279637972675 .003023
922470350595 -.0828632784572009 -1 0 0 0 0 1 30 10 136 0 13 661 0 0 +.0580279637
972675 -.0210503298862513 -.0828632784572009 0 0 -1 29 11 113 0 668 670 0 .05802
79637972675 .0270981748269525 -.116899278457201 19 12 48 0 2 662 0 666 0 V0 16 1
3 120 669 ?667 0 671 10 0 0 2 18 14 42 675 673 0 672 674 ?2 81 1 675 184 45 14 0
 0 676 680 678 17 673 0 677 679 681 14 685 682 0 683 -18 672 37 684 687 14 690 6
89 ?2 29 674 44 0 14 689 686 .0580279637972675 .0270981748269525 -.0828632784572
009 29 689 39 0 672 688 674 .03118706283898535 .0270981748269525 -.0828632784572
009 29 686 116 0 694 674 691 .0580279637972675 -.0210503298862513 -.116899278457
201 18 694 104 695 667 693 0 686 ?2 29 691 115 0 693 686 670 .03118706283898535
 -.0210503298862513 -.116899278457201 18 693 100 692 698 697 694 691 ?2 29 670 1
14 0 697 691 11 .03118706283898535 .0270981748269525 -.116899278457201 18 697 96
 680 696 668 693 670 ?2 81 1 680 185 45 697 0 0 675 684 700 17 696 0 699 705 702
 697 687 703 0 701 +18 668 92 676 685 704 697 11 ?2 81 1 676 183 45 668 0 0 709
 675 710 17 685 0 707 701 683 668 673 682 0 708 +18 704 27 706 713 690 668 715 ?
2 81 1 706 180 45 704 0 0 695 692 711 17 713 0 714 712 716 704 667 13 0 720 -18
 690 32 709 718 672 704 688 ?2 29 715 29 0 704 0 688 .0580279637972675 -.0210503
298862513 -.0828632784572009 29 688 34 0 690 715 689 .03118706283898535 -.021050
3298862513 -.0828632784572009 81 1 709 182 45 690 0 0 692 676 717 17 718 0 699 7
02 705 690 698 671 0 712 -15 699 123 0 705 719 0 17 702 0 699 696 718 672 721 72
5 0 723 +17 705 0 699 718 696 693 722 724 0 726 -17 698 0 714 716 712 693 718 67
1 0 705 +16 671 119 730 ?698 13 703 661 0 0 2 17 712 0 714 698 713 690 720 727 0
 721 +15 714 125 0 716 728 0 17 720 0 729 732 721 704 712 727 0 679 -16 727 12 7
35 ?712 725 734 731 0 0 2 17 721 0 729 720 723 690 702 725 0 0 -15 729 6 0 732 7
33 0 17 723 0 729 721 732 672 683 739 0 0 +16 725 17 736 ?702 739 727 740 0 0 2
 81 1 736 198 45 725 0 0 738 737 743 16 739 22 742 ?723 682 725 741 0 0 2 30 740
 19 0 725 731 741 0 +.03118706283898535 .003023922470350595 -.0828632784572009 0
 1 0 30 731 14 0 727 745 740 0 +.04460751331812645 -.0210503298862513 -.08286327
84572009 -1 0 0 30 741 24 0 739 740 744 0 +.04460751331812645 .0270981748269525
 -.0828632784572009 -1 0 0 30 744 112 0 750 741 747 0 +.0580279637972675 .003023
922470350595 -.116899278457201 0 1 0 16 750 88 748 ?681 746 0 744 0 0 2 30 747 1
11 0 746 744 749 0 +.04460751331812645 -.0210503298862513 -.116899278457201 -1 0
 0 16 746 84 754 ?726 724 750 747 0 0 2 30 749 110 0 724 747 755 0 +.03118706283
898535 .003023922470350595 -.116899278457201 0 1 0 16 724 80 738 ?722 752 746 74
9 0 0 2 30 755 109 0 752 749 753 0 +.04460751331812645 .0270981748269525 -.11689
9278457201 -1 0 0 16 752 76 751 ?701 734 724 755 0 0 2 30 753 133 0 682 755 758
 0 +.0580279637972675 .0270981748269525 -.0828632784572009 0 0 -1 16 682 117 760
 ?685 703 739 753 0 0 2 30 758 134 0 703 753 661 0 +.03118706283898535 .02709817
48269525 -.0828632784572009 0 0 -1 16 703 118 756 ?696 671 682 758 0 0 2 30 661
 135 0 671 758 10 0 +.03118706283898535 -.0210503298862513 -.0828632784572009 0
 0 -1 81 1 756 190 45 703 0 0 760 754 759 81 1 760 189 45 682 0 0 730 756 757 81
 1 754 191 45 746 0 0 756 735 761 82 3 759 17 3 1 81 1 735 192 45 727 0 0 754 75
1 765 82 3 761 17 4 1 81 1 751 193 45 752 0 0 735 742 763 82 3 765 17 5 1 81 1 7
42 194 45 739 0 0 751 748 762 82 3 763 17 6 1 81 1 748 195 45 750 0 0 742 764 76
6 82 3 762 17 7 1 81 1 764 196 45 734 0 0 748 738 770 82 3 766 17 8 1 16 734 7 7
64 ?732 727 752 745 0 0 2 81 1 738 197 45 724 0 0 764 736 768 82 3 770 17 9 1 82
 3 768 17 10 1 17 732 0 729 723 720 14 679 734 0 0 +30 745 9 0 734 0 731 0 +.058
0279637972675 .003023922470350595 -.0828632784572009 0 1 0 17 679 0 677 667 673
 704 732 734 0 0 -15 677 127 0 681 665 0 17 667 0 677 681 679 694 713 13 0 716 +
17 681 0 677 673 667 668 767 750 0 0 +17 716 0 714 713 698 694 726 746 0 767 -17
 726 0 769 722 767 693 716 746 0 0 +17 767 0 769 726 708 694 681 750 0 0 -15 769
 75 0 767 771 0 17 708 0 769 767 722 668 701 752 0 681 -17 722 0 769 708 726 697
 705 724 0 0 +17 701 0 707 687 685 697 708 752 0 722 +15 707 121 0 701 775 0 17
 687 0 707 683 701 672 696 703 0 702 -17 683 0 707 685 687 14 723 739 0 732 -14
 775 122 772 ?733 719 707 8 773 -0 0 733 719 666 81 1 772 211 378 775 774 0 777
 780 779 14 733 1 780 ?771 775 729 8 776 -0 0 771 775 666 14 719 124 777 ?775 72
8 699 8 778 +0 0 775 728 666 50 773 129 0 775 784 778 0 +.04460751331812645 .027
0981748269525 -.0828632784572009 0 -1 0 0 0 -1 13 666 137 0 0 0 0 0 0 12 665 14
 665 128 781 ?728 0 677 8 9 -0 0 728 0 666 81 1 781 208 378 665 785 0 0 783 782
 14 728 126 783 ?719 665 714 8 663 +0 0 719 665 666 81 1 783 209 378 728 737 0 7
81 777 788 50 663 131 0 728 778 9 0 +.04460751331812645 -.0210503298862513 -.082
8632784572009 0 -1 0 0 0 -1 50 778 130 0 719 773 663 0 +.03118706283898535 .0030
23922470350595 -.0828632784572009 -1 0 0 0 0 1 81 1 737 199 45 728 0 783 736 787
 786 81 1 777 210 378 719 790 0 783 772 789 83 3 788 .231372549019608 .380392156
862745 .705882352941177 81 1 790 204 45 719 0 777 785 0 795 83 3 789 .2313725490
19608 .380392156862745 .705882352941177 81 1 785 203 45 665 0 781 774 790 792 82
 3 795 17 5 2 81 1 774 202 45 775 0 772 793 785 791 82 3 792 17 4 2 81 1 793 201
 45 733 0 780 787 774 794 82 3 791 17 3 2 81 1 780 212 378 733 793 0 772 799 800
 81 1 787 200 45 771 0 799 737 793 797 82 3 794 17 2 2 14 771 68 799 ?0 733 769
 8 784 +0 0 0 733 666 81 1 799 213 378 771 787 0 780 0 798 82 3 797 17 1 2 83 3
 798 .231372549019608 .380392156862745 .705882352941177 50 784 108 0 771 776 773
 0 +-.028562 .0467484654272199 -.116899278457201 0 0 -1 1 0 0 50 776 3 0 733 0 7
84 0 +-.028562 .0467484654272199 -.0828632784572009 0 0 -1 1 0 0 83 3 800 .23137
2549019608 .380392156862745 .705882352941177 82 3 786 17 0 2 83 3 782 .231372549
019608 .380392156862745 .705882352941177 83 3 779 .231372549019608 .380392156862
745 .705882352941177 81 1 730 188 45 671 0 0 669 760 796 82 3 757 17 2 1 81 1 66
9 187 45 13 0 0 684 730 803 82 3 796 17 1 1 81 1 684 186 45 672 0 0 680 669 805
 82 3 803 17 0 1 82 3 805 17 7 0 82 3 743 17 11 1 81 1 692 181 45 693 0 0 706 70
9 801 82 3 717 17 3 0 82 3 801 17 2 0 81 1 695 179 45 694 0 0 804 706 802 82 3 7
11 17 1 0 81 1 804 178 45 2 0 806 0 695 810 82 3 802 17 0 0 81 1 806 205 541 2 8
04 656 0 0 808 82 3 810 16 0 3 81 1 656 206 542 2 806 4 0 0 807 98 8 808 69 83 8
0 51 50 45 53 51 84 8 807 ESP32-5382 3 710 17 4 0 82 3 700 17 6 0 82 3 678 17 5
 0 19 662 138 0 2 0 12 8 0 S0 74 20 664 5 0 0 790 806 656 4 799 0 0 0 0 0 0 0 0
 0 0 0 0 0 0 0 83 3 659 .231372549019608 .380392156862745 .705882352941177 1 0 
